<mxfile host="app.diagrams.net" modified="2023-10-25T13:12:47.826Z" agent="Mozilla/5.0 (Windows NT 10.0; Win64; x64) AppleWebKit/537.36 (KHTML, like Gecko) Chrome/118.0.0.0 Safari/537.36 Edg/118.0.2088.61" version="22.0.8" etag="QW_UEaQJlN9AecpU0-G2" type="google">
  <diagram name="Page-1" id="9W_oEdCa6_2clGEi0X5h">
    <mxGraphModel>
      <root>
        <mxCell id="0" />
        <mxCell id="1" parent="0" />
      </root>
    </mxGraphModel>
  </diagram>
</mxfile>
